# xmcd CD database file
#
# Track frame offsets:
#	150
#	37520
#	57488
#	85150
#	124883
#	155465
#	186123
#	209013
#	237220
#	261698
#	281615
#
# Disc length: 4142 seconds
#
# Revision: 4
# Processed by: cddbd v1.5.2PL0 Copyright (c) Steve Scherf et al.
# Submitted via: CDex 1.79
#
DISCID=9e102c0b
DTITLE=The Crusaders - Rhapsody And Blues - Standing Tall
DYEAR=1980
DGENRE=Jazz
TTITLE0=Soul Shadows
TTITLE1=Honky Tonk Struttin'
TTITLE2=Elegant Evening
TTITLE3=Rhapsody And Blues
TTITLE4=Last Call
TTITLE5=Standing Tall
TTITLE6=I'm So Glad I'm Standing Here Today
TTITLE7=Sunshine In Your Eyes
TTITLE8=This Old World's Too Funky For Me
TTITLE9=Luckenbach, Texas
TTITLE10=Longest Night
EXTD=1980/1981 YEAR: 1980
EXTT0=
EXTT1=
EXTT2=
EXTT3=
EXTT4=
EXTT5=
EXTT6=
EXTT7=
EXTT8=
EXTT9=
EXTT10=
PLAYORDER=
